<svg width="113" height="62" viewBox="0 0 113 62" fill="none" xmlns="http://www.w3.org/2000/svg">
<path d="M13.8634 45.606C13.5754 45.546 13.2994 45.468 13.0354 45.372C12.7834 45.276 12.5554 45.18 12.3514 45.084V44.4H16.9234V45.084C16.7794 45.18 16.5874 45.276 16.3474 45.372C16.1194 45.468 15.8794 45.546 15.6274 45.606L11.4874 57L9.70544 57.216L5.06144 45.606C4.82144 45.546 4.58144 45.474 4.34144 45.39C4.10144 45.294 3.89144 45.192 3.71144 45.084V44.4H9.70544V45.084C9.50145 45.18 9.27345 45.276 9.02145 45.372C8.76945 45.468 8.50545 45.546 8.22945 45.606L10.7494 52.698L11.1634 54.39H11.1994L11.5954 52.662L13.8634 45.606ZM19.7562 55.506C19.8882 55.638 20.0742 55.764 20.3142 55.884C20.5542 55.992 20.8722 56.046 21.2682 56.046C21.9282 56.046 22.4742 55.878 22.9062 55.542C23.3502 55.194 23.5722 54.714 23.5722 54.102C23.5722 53.658 23.4282 53.286 23.1402 52.986C22.8642 52.686 22.5102 52.41 22.0782 52.158C21.6462 51.906 21.1842 51.66 20.6922 51.42C20.2002 51.168 19.7382 50.874 19.3062 50.538C18.8742 50.202 18.5142 49.806 18.2262 49.35C17.9502 48.882 17.8122 48.306 17.8122 47.622C17.8122 47.034 17.9202 46.524 18.1362 46.092C18.3522 45.66 18.6462 45.306 19.0182 45.03C19.4022 44.742 19.8522 44.532 20.3682 44.4C20.8842 44.256 21.4422 44.184 22.0422 44.184C22.7742 44.184 23.4522 44.238 24.0762 44.346C24.7122 44.442 25.2822 44.598 25.7862 44.814C25.7742 45.054 25.7502 45.33 25.7142 45.642C25.6902 45.954 25.6542 46.266 25.6062 46.578C25.5582 46.878 25.5042 47.166 25.4442 47.442C25.3962 47.706 25.3482 47.928 25.3002 48.108H24.5622L23.7342 45.642C23.5902 45.57 23.3742 45.504 23.0862 45.444C22.8102 45.384 22.5222 45.354 22.2222 45.354C21.7182 45.354 21.2922 45.486 20.9442 45.75C20.5962 46.014 20.4222 46.398 20.4222 46.902C20.4222 47.358 20.5662 47.748 20.8542 48.072C21.1422 48.384 21.5022 48.672 21.9342 48.936C22.3662 49.2 22.8342 49.464 23.3382 49.728C23.8542 49.98 24.3282 50.274 24.7602 50.61C25.1922 50.946 25.5522 51.342 25.8402 51.798C26.1282 52.242 26.2722 52.794 26.2722 53.454C26.2722 54.654 25.8642 55.584 25.0482 56.244C24.2442 56.892 23.0562 57.216 21.4842 57.216C21.1002 57.216 20.7102 57.192 20.3142 57.144C19.9302 57.096 19.5642 57.03 19.2162 56.946C18.8682 56.862 18.5562 56.772 18.2802 56.676C18.0162 56.58 17.8182 56.478 17.6862 56.37C17.6982 56.094 17.7282 55.8 17.7762 55.488C17.8242 55.164 17.8722 54.846 17.9202 54.534C17.9802 54.21 18.0402 53.904 18.1002 53.616C18.1602 53.328 18.2202 53.076 18.2802 52.86H19.0182L19.7562 55.506ZM36.0573 57H29.8653V56.316C30.1053 56.22 30.3753 56.124 30.6753 56.028C30.9873 55.92 31.2993 55.842 31.6113 55.794V45.57H29.5233L28.3713 48.648H27.6333C27.5853 48.408 27.5373 48.102 27.4893 47.73C27.4413 47.358 27.3993 46.974 27.3633 46.578C27.3273 46.182 27.2973 45.792 27.2733 45.408C27.2493 45.012 27.2373 44.676 27.2373 44.4H38.6853C38.6853 44.688 38.6733 45.024 38.6493 45.408C38.6253 45.792 38.5953 46.182 38.5593 46.578C38.5233 46.974 38.4813 47.358 38.4333 47.73C38.3853 48.09 38.3373 48.396 38.2893 48.648H37.5513L36.3993 45.57H34.3113V55.794C34.6233 55.854 34.9293 55.926 35.2293 56.01C35.5413 56.094 35.8173 56.196 36.0573 56.316V57ZM41.7844 57H37.3384V56.316C37.5304 56.196 37.7344 56.094 37.9504 56.01C38.1784 55.914 38.4004 55.842 38.6164 55.794L43.2604 44.184H44.5924L49.1104 55.794C49.3504 55.842 49.5904 55.914 49.8304 56.01C50.0704 56.094 50.2804 56.196 50.4604 56.316V57H44.8264V56.316C45.0544 56.208 45.3004 56.106 45.5644 56.01C45.8284 55.914 46.0804 55.842 46.3204 55.794L45.2764 52.932H41.2804L40.2184 55.794C40.7704 55.866 41.2924 56.04 41.7844 56.316V57ZM41.7124 51.762H44.8984L43.7284 48.324L43.3864 46.776H43.3504L42.9544 48.36L41.7124 51.762ZM54.9877 55.794C55.2637 55.854 55.5097 55.932 55.7257 56.028C55.9417 56.124 56.1517 56.22 56.3557 56.316V57H50.8117V56.316C51.0757 56.172 51.3277 56.064 51.5677 55.992C51.8077 55.908 52.0477 55.842 52.2877 55.794V45.606C51.6877 45.474 51.1957 45.3 50.8117 45.084V44.4H52.7197C52.9597 44.4 53.2297 44.394 53.5297 44.382C53.8417 44.37 54.1657 44.358 54.5017 44.346C54.8377 44.322 55.1797 44.304 55.5277 44.292C55.8757 44.268 56.2117 44.256 56.5357 44.256C57.1957 44.256 57.8017 44.334 58.3537 44.49C58.9177 44.634 59.3977 44.856 59.7937 45.156C60.2017 45.456 60.5137 45.834 60.7297 46.29C60.9577 46.734 61.0717 47.256 61.0717 47.856C61.0717 48.72 60.8617 49.428 60.4417 49.98C60.0217 50.532 59.4457 50.946 58.7137 51.222C59.1937 51.978 59.7037 52.752 60.2437 53.544C60.7837 54.324 61.3537 55.08 61.9537 55.812L62.8177 56.388V57H59.8117L59.0377 56.406C58.4857 55.746 57.9937 54.984 57.5617 54.12C57.1417 53.244 56.7697 52.386 56.4457 51.546H54.9877V55.794ZM55.8877 45.426C55.5157 45.426 55.2157 45.462 54.9877 45.534V50.556H56.0497C56.6617 50.556 57.1837 50.34 57.6157 49.908C58.0477 49.464 58.2637 48.81 58.2637 47.946C58.2637 47.502 58.2037 47.124 58.0837 46.812C57.9637 46.488 57.7957 46.224 57.5797 46.02C57.3637 45.816 57.1117 45.666 56.8237 45.57C56.5357 45.474 56.2237 45.426 55.8877 45.426ZM79.302 56.208C79.062 56.328 78.768 56.448 78.42 56.568C78.072 56.688 77.706 56.796 77.322 56.892C76.938 56.988 76.554 57.066 76.17 57.126C75.786 57.186 75.444 57.216 75.144 57.216C74.112 57.216 73.188 57.084 72.372 56.82C71.568 56.544 70.878 56.136 70.302 55.596C69.738 55.044 69.306 54.36 69.006 53.544C68.706 52.728 68.556 51.78 68.556 50.7C68.556 49.524 68.736 48.528 69.096 47.712C69.468 46.884 69.954 46.212 70.554 45.696C71.166 45.168 71.856 44.784 72.624 44.544C73.392 44.304 74.178 44.184 74.982 44.184C75.774 44.184 76.518 44.238 77.214 44.346C77.91 44.454 78.462 44.61 78.87 44.814C78.87 44.994 78.858 45.228 78.834 45.516C78.822 45.792 78.798 46.092 78.762 46.416C78.726 46.74 78.678 47.064 78.618 47.388C78.57 47.712 78.51 48.006 78.438 48.27H77.7L76.692 45.534C76.56 45.474 76.362 45.432 76.098 45.408C75.834 45.372 75.57 45.354 75.306 45.354C74.814 45.354 74.34 45.45 73.884 45.642C73.428 45.834 73.026 46.146 72.678 46.578C72.33 46.998 72.054 47.55 71.85 48.234C71.646 48.906 71.544 49.728 71.544 50.7C71.544 51.492 71.634 52.218 71.814 52.878C72.006 53.526 72.27 54.084 72.606 54.552C72.942 55.02 73.344 55.386 73.812 55.65C74.28 55.914 74.796 56.046 75.36 56.046C75.54 56.046 75.726 56.034 75.918 56.01C76.11 55.974 76.29 55.932 76.458 55.884C76.626 55.836 76.77 55.782 76.89 55.722C77.022 55.662 77.112 55.608 77.16 55.56V52.176C76.848 52.152 76.554 52.092 76.278 51.996C76.002 51.9 75.744 51.786 75.504 51.654V50.97H80.418V51.654C80.31 51.762 80.166 51.864 79.986 51.96C79.806 52.044 79.578 52.116 79.302 52.176V56.208ZM88.7697 44.4H93.1797V45.084C92.9997 45.192 92.7957 45.3 92.5677 45.408C92.3517 45.504 92.1297 45.57 91.9017 45.606L88.4097 51.726V55.794C88.6497 55.818 88.8837 55.884 89.1117 55.992C89.3517 56.088 89.5737 56.196 89.7777 56.316V57H84.2337V56.316C84.4377 56.208 84.6657 56.106 84.9177 56.01C85.1697 55.914 85.4337 55.842 85.7097 55.794V51.744L82.0737 45.606C81.7977 45.558 81.5337 45.486 81.2817 45.39C81.0417 45.294 80.8197 45.192 80.6157 45.084V44.4H86.5197V45.084C86.3517 45.18 86.1597 45.276 85.9437 45.372C85.7277 45.468 85.4757 45.546 85.1877 45.606L87.7617 50.43L90.2097 45.606C89.9337 45.546 89.6697 45.468 89.4177 45.372C89.1657 45.276 88.9497 45.18 88.7697 45.084V44.4ZM109.546 57H104.164V56.316C104.404 56.196 104.638 56.094 104.866 56.01C105.094 55.926 105.34 55.854 105.604 55.794V48.27L105.694 46.164H105.55L104.956 48.09L101.482 57H100.654L97.1981 48.162L96.5501 46.056H96.3881L96.4061 48.342V55.722C96.6341 55.77 96.8861 55.848 97.1621 55.956C97.4381 56.064 97.6961 56.184 97.9361 56.316V57H93.5441V56.316C93.7361 56.22 93.9701 56.106 94.2461 55.974C94.5341 55.842 94.8041 55.752 95.0561 55.704V45.606C94.8161 45.558 94.5581 45.492 94.2821 45.408C94.0181 45.324 93.7841 45.216 93.5801 45.084V44.4H98.4581L101.212 51.726L101.734 53.454H101.752L102.292 51.69L105.1 44.4H109.564V45.084C109.36 45.204 109.138 45.312 108.898 45.408C108.67 45.492 108.436 45.558 108.196 45.606V55.812C108.448 55.86 108.688 55.932 108.916 56.028C109.156 56.124 109.366 56.22 109.546 56.316V57Z" fill="white"/>
<path d="M68.9479 9.02272C71.9122 10.7443 73.612 11.1033 76.6882 11.2784C73.5789 11.5381 71.8448 11.7469 68.9479 13.5341C67.4597 16.9042 67.2259 18.9199 67.0128 22.5568C66.665 19.0498 66.3587 17.079 65.0777 13.5341C62.9342 11.7838 61.1537 11.3767 57.3374 11.2784C61.7278 10.8105 63.3501 10.3088 65.0777 9.02272C66.3631 5.3104 66.7111 3.36388 67.0128 0C67.3679 3.56538 67.7892 5.54114 68.9479 9.02272Z" fill="#BF843B"/>
<path d="M35.3887 7H60.473C60.473 7 52.3666 8.91142 50.0212 9.82282L65.1764 33L62.2349 38.9874L44.2524 9.82282C41.6598 8 35.3887 7 35.3887 7Z" fill="#BF843B"/>
</svg>
