<svg width="60" height="61" viewBox="0 0 60 61" fill="" xmlns="http://www.w3.org/2000/svg">
<g clip-path="url(#clip0_162_1579)">
<path d="M60 30.9331C60 14.3628 46.5703 0.933105 30 0.933105C13.4297 0.933105 0 14.3628 0 30.9331C0 47.5034 13.4297 60.9331 30 60.9331C30.1758 60.9331 30.3516 60.9331 30.5273 60.9214V37.5776H24.082V30.0659H30.5273V24.5347C30.5273 18.1245 34.4414 14.6323 40.1602 14.6323C42.9023 14.6323 45.2578 14.8315 45.9375 14.9253V21.6284H42C38.8945 21.6284 38.2852 23.105 38.2852 25.2729V30.0542H45.7266L44.7539 37.5659H38.2852V59.7729C50.8242 56.1753 60 44.6323 60 30.9331Z" />
</g>
<defs>
<clipPath id="clip0_162_1579">
<rect width="60" height="60" fill="white" transform="translate(0 0.933105)"/>
</clipPath>
</defs>
</svg>
