<svg width="60" height="60" viewBox="0 0 60 60" fill="none" xmlns="http://www.w3.org/2000/svg">
<path d="M35.6523 29.9331C35.6523 33.0548 33.1217 35.5854 30 35.5854C26.8783 35.5854 24.3477 33.0548 24.3477 29.9331C24.3477 26.8114 26.8783 24.2808 30 24.2808C33.1217 24.2808 35.6523 26.8114 35.6523 29.9331Z" fill="#9E9C9C" stroke="black"/>
<path d="M48.5999 37.4044L48.6005 37.3918V37.3792L48.6004 22.487V22.4744L48.5998 22.4618C48.4557 19.6082 47.6509 16.7203 45.499 14.5913C43.3279 12.4433 40.4281 11.6678 37.5507 11.5255L37.5384 11.5249H37.526H22.474H22.4616L22.4493 11.5255C19.5722 11.6678 16.6721 12.4437 14.5011 14.5912L14.501 14.5913C12.3492 16.7203 11.5443 19.6082 11.4002 22.4618L11.3996 22.4744V22.487V37.3792V37.3918L11.4002 37.4044C11.5443 40.258 12.3491 43.1459 14.501 45.2748C16.6721 47.4229 19.5719 48.1983 22.4493 48.3407L22.4616 48.3413H22.474H37.5261H37.5385L37.5509 48.3407C40.4279 48.1983 43.328 47.4224 45.4991 45.2749L45.4991 45.2748C47.6509 43.1459 48.4558 40.258 48.5999 37.4044ZM1.20312 29.9331C1.20312 14.0291 14.0959 1.13623 30 1.13623C45.9041 1.13623 58.7969 14.0291 58.7969 29.9331C58.7969 45.8372 45.9041 58.73 30 58.73C14.0959 58.73 1.20312 45.8372 1.20312 29.9331Z" fill="#9E9C9C" stroke="black"/>
<path d="M15.734 22.7833L15.734 22.7833C15.6867 24.5644 15.6866 28.1378 15.6985 31.274C15.7044 32.8403 15.7134 34.2949 15.7208 35.358C15.7245 35.8895 15.7279 36.323 15.7303 36.6237L15.7331 36.9707L15.7339 37.0612L15.7341 37.0843L15.7341 37.0866C15.7944 39.0434 16.2958 40.7341 17.5997 42.1274C18.8207 43.4318 20.8142 43.8973 22.6787 43.9485C26.3358 44.0488 33.665 44.0488 37.3222 43.9485C39.1865 43.8973 41.1801 43.4314 42.401 42.1274C43.7055 40.7336 44.2137 39.0432 44.2666 37.0897V22.7768C44.2137 20.8233 43.7055 19.1329 42.4011 17.7392C41.1797 16.4347 39.1861 15.9692 37.3221 15.918C33.665 15.8177 26.3358 15.8177 22.6787 15.918L15.734 22.7833ZM15.734 22.7833C15.7859 20.8271 16.2938 19.1345 17.5997 17.7392L15.734 22.7833ZM17.5997 17.7391C18.8207 16.4351 20.8143 15.9692 22.6786 15.918L17.5997 17.7391ZM24.4242 38.278C26.0746 39.3808 28.015 39.9694 29.9999 39.9694C32.6617 39.9694 35.2144 38.912 37.0965 37.0299C38.9787 35.1477 40.0361 32.595 40.0361 29.9333C40.0361 27.9483 39.4475 26.0079 38.3447 24.3575C37.2419 22.7071 35.6745 21.4207 33.8406 20.6611C32.0067 19.9015 29.9888 19.7027 28.042 20.09C26.0952 20.4772 24.3069 21.4331 22.9033 22.8366C21.4997 24.2402 20.5439 26.0285 20.1566 27.9753C19.7694 29.9221 19.9681 31.9401 20.7278 33.7739C21.4874 35.6078 22.7737 37.1752 24.4242 38.278ZM38.2393 22.4595C38.6351 22.7241 39.1004 22.8654 39.5765 22.8655C39.8927 22.8656 40.2057 22.8034 40.4979 22.6825C40.79 22.5615 41.0554 22.3842 41.279 22.1607C41.5026 21.9371 41.68 21.6717 41.801 21.3796C41.922 21.0875 41.9843 20.7745 41.9843 20.4583C41.9843 19.9822 41.8431 19.5168 41.5787 19.121C41.3142 18.7251 40.9382 18.4166 40.4984 18.2344C40.0586 18.0522 39.5746 18.0045 39.1077 18.0973C38.6407 18.1901 38.2118 18.4193 37.8751 18.7559C37.5384 19.0925 37.3091 19.5214 37.2162 19.9883C37.1232 20.4552 37.1708 20.9392 37.3529 21.3791C37.535 21.819 37.8435 22.195 38.2393 22.4595Z" fill="#9E9C9C" stroke="black"/>
</svg>
