<svg width="60" height="30" viewBox="0 0 91 54" fill="none" xmlns="http://www.w3.org/2000/svg">
<path d="M82.8762 0.0830078H8.77374C4.40785 0.0830078 0.871826 3.06849 0.871826 6.71348V46.4963C0.871826 50.163 4.43383 53.1268 8.77374 53.1268H82.8762C87.2055 53.1268 90.7781 50.1755 90.7781 46.4963V6.71348C90.7781 3.07497 87.2561 0.0830078 82.8762 0.0830078ZM81.7695 4.50332L51.4125 29.8416C49.9199 31.094 47.9356 31.7836 45.825 31.7836C43.7143 31.7836 41.73 31.0939 40.2325 29.8375L9.88036 4.50332H81.7695ZM6.13977 45.5967V7.61596L28.904 26.6167L6.13977 45.5967ZM9.8837 48.7065L32.6389 29.7341L36.5125 32.9672C39 35.0545 42.3072 36.2039 45.825 36.2039C49.3427 36.2039 52.6499 35.0545 55.1325 32.9713L59.011 29.7341L81.7662 48.7065H9.8837ZM85.5101 45.5967L62.7459 26.6167L85.5101 7.61596V45.5967Z" fill="#B9B6B6"/>
</svg>
