<svg width="90" height="82" viewBox="0 0 90 82" fill="none" xmlns="http://www.w3.org/2000/svg">
<g clip-path="url(#clip0_159_1540)">
<path d="M87.185 35.7932C85.6326 35.7932 84.3727 36.9285 84.3727 38.3272V67.0224L61.8741 75.1312V48.4633C61.8741 47.0645 60.6141 45.9293 59.0617 45.9293C57.5093 45.9293 56.2494 47.0645 56.2494 48.4633V75.1261L33.7508 67.0173V26.8684L46.7831 31.5665C48.2062 32.0834 49.8598 31.455 50.4391 30.1525C51.0185 28.8551 50.3154 27.3803 48.8699 26.8583L32.0353 20.7868H32.0297L31.9847 20.7716C31.3153 20.5284 30.5673 20.5284 29.8979 20.7716L29.8473 20.7868H29.8417L1.76907 30.9077C1.2478 31.096 0.801036 31.4206 0.486277 31.8397C0.171519 32.2588 0.00317906 32.7532 0.00292969 33.2592V78.8714C0.00292969 79.7127 0.469776 80.4982 1.24035 80.9696C1.70475 81.2542 2.25359 81.4061 2.81525 81.4054C3.16961 81.4054 3.52396 81.3446 3.86144 81.223L30.9385 71.467L57.9649 81.2078H57.9706L58.0212 81.228C58.6906 81.4713 59.4385 81.4713 60.1079 81.228L60.1585 81.2078H60.1642L88.2368 71.092C89.2942 70.7018 89.9973 69.7743 89.9973 68.7354V38.3272C89.9973 36.9285 88.7374 35.7932 87.185 35.7932ZM28.1262 67.0173L5.62758 75.1261V34.9722L28.1262 26.8634V67.0173ZM70.311 10.4531C65.6594 10.4531 61.8741 13.8639 61.8741 18.0552C61.8741 22.2464 65.6594 25.6572 70.311 25.6572C74.9626 25.6572 78.748 22.2464 78.748 18.0552C78.748 13.8639 74.9626 10.4531 70.311 10.4531ZM70.311 20.5892C68.7586 20.5892 67.4987 19.4539 67.4987 18.0552C67.4987 16.6564 68.7586 15.5211 70.311 15.5211C71.8634 15.5211 73.1234 16.6564 73.1234 18.0552C73.1234 19.4539 71.8634 20.5892 70.311 20.5892Z" fill="#B9B6B6"/>
<path d="M70.311 0.316895C59.4555 0.316895 50.6248 8.27369 50.6248 18.055C50.6248 27.1571 66.4188 43.2785 68.2187 45.0878C68.753 45.6199 69.5123 45.9291 70.311 45.9291C71.1097 45.9291 71.8691 45.6199 72.4034 45.0878C74.2033 43.2785 89.9973 27.1571 89.9973 18.055C89.9973 8.27369 81.1666 0.316895 70.311 0.316895ZM70.311 39.5282C64.1689 32.9651 56.2494 22.8899 56.2494 18.055C56.2494 11.0712 62.5603 5.38491 70.311 5.38491C78.0618 5.38491 84.3726 11.0712 84.3726 18.055C84.3726 22.8848 76.4531 32.9651 70.311 39.5282Z" fill="#B9B6B6"/>
</g>
<defs>
<clipPath id="clip0_159_1540">
<rect width="90" height="81.0934" fill="white" transform="translate(0 0.316895)"/>
</clipPath>
</defs>
</svg>
