<svg width="90" height="83" viewBox="0 0 90 83" fill="none" xmlns="http://www.w3.org/2000/svg">
<g clip-path="url(#clip0_159_1547)">
<path d="M68.424 54.5653C65.4836 51.9497 61.8129 51.9497 58.8913 54.5653C56.6627 56.5565 54.434 58.5478 52.2428 60.5727C51.6435 61.1296 51.1379 61.2477 50.4075 60.8765C48.9654 60.1677 47.4297 59.594 46.0438 58.8177C39.5826 55.1559 34.1702 50.4479 29.3758 45.1492C26.9973 42.5167 24.881 39.6986 23.4015 36.5262C23.1018 35.8849 23.158 35.4631 23.7386 34.9399C25.9672 32.9994 28.1397 31.0081 30.3309 29.0169C33.3836 26.2494 33.3836 23.0095 30.3122 20.2251C28.5704 18.6389 26.8287 17.0864 25.087 15.5002C23.2891 13.8802 21.5099 12.2434 19.6933 10.6403C16.753 8.05844 13.0823 8.05844 10.1607 10.6572C7.9133 12.6484 5.75956 14.6902 3.47472 16.6477C1.35844 18.4533 0.290938 20.6639 0.0661997 23.2457C-0.289635 27.4475 0.852782 31.4131 2.4634 35.2774C5.75956 43.2761 10.7787 50.3804 16.8654 56.894C25.087 65.7027 34.9006 72.6719 46.3809 77.7006C51.5499 79.9618 56.9061 81.6999 62.7306 81.9868C66.7384 82.1893 70.2219 81.2781 73.0124 78.46C74.9226 76.5363 77.0764 74.7813 79.099 72.9419C82.0955 70.2082 82.1142 66.9008 79.1365 64.2008C75.5781 60.9777 72.001 57.7715 68.424 54.5653ZM64.8469 41.1161L71.7576 40.053C70.6713 34.3325 67.6748 29.1519 63.1239 25.0345C58.3107 20.6976 52.2241 17.9639 45.5194 17.1202L44.5456 23.3807C49.7333 24.0388 54.4528 26.1482 58.1797 29.5063C61.7005 32.6787 64.0041 36.6949 64.8469 41.1161ZM75.653 14.049C67.6748 6.86033 57.5804 2.32102 46.4371 0.92041L45.4632 7.18095C55.0895 8.39593 63.8168 12.3278 70.7088 18.5208C77.2449 24.4101 81.5337 31.8519 83.0881 40.0361L89.9988 38.973C88.1822 29.4894 83.2192 20.8833 75.653 14.049Z" fill="#B9B6B6"/>
</g>
<defs>
<clipPath id="clip0_159_1547">
<rect width="90" height="81.0934" fill="white" transform="translate(0 0.92041)"/>
</clipPath>
</defs>
</svg>
