<svg width="60" height="60" viewBox="0 0 60 60" fill="" xmlns="http://www.w3.org/2000/svg">
<g clip-path="url(#clip0_162_1566)">
<path d="M60 11.3963C57.7687 12.375 55.3913 13.0237 52.9125 13.3387C55.4625 11.8162 57.4088 9.42375 58.3238 6.54C55.9463 7.9575 53.3212 8.95875 50.5238 9.5175C48.2662 7.11375 45.0487 5.625 41.5387 5.625C34.7287 5.625 29.2463 11.1525 29.2463 17.9288C29.2463 18.9038 29.3288 19.8412 29.5312 20.7337C19.305 20.235 10.2563 15.3338 4.1775 7.8675C3.11625 9.70875 2.49375 11.8162 2.49375 14.085C2.49375 18.345 4.6875 22.1213 7.9575 24.3075C5.98125 24.27 4.0425 23.6963 2.4 22.7925V22.9275C2.4 28.905 6.66375 33.87 12.255 35.0138C11.2537 35.2875 10.1625 35.4187 9.03 35.4187C8.2425 35.4187 7.4475 35.3738 6.70125 35.2087C8.295 40.08 12.8175 43.6613 18.195 43.7775C14.01 47.0513 8.69625 49.0238 2.94375 49.0238C1.935 49.0238 0.9675 48.9787 0 48.855C5.44875 52.3687 11.9062 54.375 18.87 54.375C41.505 54.375 53.88 35.625 53.88 19.3725C53.88 18.8287 53.8612 18.3038 53.835 17.7825C56.2762 16.05 58.3275 13.8863 60 11.3963Z" />
</g>
<defs>
<clipPath id="clip0_162_1566">
<rect width="60" height="60" fill="white"/>
</clipPath>
</defs>
</svg>
